# xmcd
#
# Track frame offsets:
#	150
#	16501
#	36599
#	56310
#	75973
#	92648
#	108011
#	123183
#	135909
#	156035
#	171304
#	189230
#	201132
#	215797
#	230913
#
# Disc length: 3310
#
# Revision: 2
# Processed by: cddbd v1.5.1PL0 Copyright (c) Steve Scherf et al.
# Submitted via: CDex 1.30Release
# Normalized: r1:TDELIM( - )
#
DISCID=b70cec0f
DTITLE=Various Artist - Cow Hear This! 2
DYEAR=2003
DGENRE=Country
TTITLE0=Rodney Hayden - The Real Thing
TTITLE1=Kevin Welch - Killin' Myself
TTITLE2=Django Walker - Blacktop Texas Highway
TTITLE3=Gene Watson - I Never Go Around Mirrors
TTITLE4=Mark David Manders - Drive
TTITLE5=Owen Temple - No Daring is Fatal
TTITLE6=Kevin Fowler - Senorita Mas Fina
TTITLE7=Kieran Kane - June Carter (Sure Can Sing)
TTITLE8=Aaron Watson - Shut Up and Dance
TTITLE9=Stephanie Urbina Jones - God Loves It When We Dance
TTITLE10=Ray Price - You Just Don't Love Me Anymore
TTITLE11=Dale Watson - In The Jailhouse Now
TTITLE12=Joe Nichols - Six of One, Half a Dozen of the Other
TTITLE13=Pete Benz - Good Luck
TTITLE14=Billy Joe Shaver - That's What She Said Last Night
EXTD=YEAR: 2003 ID3G:   2
EXTT0=
EXTT1=
EXTT2=
EXTT3=
EXTT4=
EXTT5=
EXTT6=
EXTT7=
EXTT8=
EXTT9=
EXTT10=
EXTT11=
EXTT12=
EXTT13=
EXTT14=
PLAYORDER=
